<mxfile host="app.diagrams.net" modified="2023-04-02T07:42:48.233Z" agent="Mozilla/5.0 (Windows NT 10.0; Win64; x64) AppleWebKit/537.36 (KHTML, like Gecko) Chrome/111.0.0.0 Safari/537.36" etag="9TllOhzA8ahbXN8A7c3v" version="21.1.2" type="device">
  <diagram name="Страница 1" id="Jz5rE5uh_i9evfHn8QDH">
    <mxGraphModel dx="1034" dy="480" grid="1" gridSize="10" guides="1" tooltips="1" connect="1" arrows="1" fold="1" page="1" pageScale="1" pageWidth="827" pageHeight="1169" math="0" shadow="0">
      <root>
        <mxCell id="0" />
        <mxCell id="1" parent="0" />
        <mxCell id="dNgkZK0vdlMBR99GWLDx-4" value="Bot" style="swimlane;fontStyle=1;align=center;verticalAlign=top;childLayout=stackLayout;horizontal=1;startSize=26;horizontalStack=0;resizeParent=1;resizeParentMax=0;resizeLast=0;collapsible=1;marginBottom=0;whiteSpace=wrap;html=1;" parent="1" vertex="1">
          <mxGeometry x="310" width="130" height="86" as="geometry" />
        </mxCell>
        <mxCell id="dNgkZK0vdlMBR99GWLDx-5" value="+ book" style="text;strokeColor=none;fillColor=none;align=left;verticalAlign=top;spacingLeft=4;spacingRight=4;overflow=hidden;rotatable=0;points=[[0,0.5],[1,0.5]];portConstraint=eastwest;whiteSpace=wrap;html=1;" parent="dNgkZK0vdlMBR99GWLDx-4" vertex="1">
          <mxGeometry y="26" width="130" height="26" as="geometry" />
        </mxCell>
        <mxCell id="dNgkZK0vdlMBR99GWLDx-6" value="" style="line;strokeWidth=1;fillColor=none;align=left;verticalAlign=middle;spacingTop=-1;spacingLeft=3;spacingRight=3;rotatable=0;labelPosition=right;points=[];portConstraint=eastwest;strokeColor=inherit;" parent="dNgkZK0vdlMBR99GWLDx-4" vertex="1">
          <mxGeometry y="52" width="130" height="8" as="geometry" />
        </mxCell>
        <mxCell id="dNgkZK0vdlMBR99GWLDx-7" value="+ handler()" style="text;strokeColor=none;fillColor=none;align=left;verticalAlign=top;spacingLeft=4;spacingRight=4;overflow=hidden;rotatable=0;points=[[0,0.5],[1,0.5]];portConstraint=eastwest;whiteSpace=wrap;html=1;" parent="dNgkZK0vdlMBR99GWLDx-4" vertex="1">
          <mxGeometry y="60" width="130" height="26" as="geometry" />
        </mxCell>
        <mxCell id="dNgkZK0vdlMBR99GWLDx-8" value="AddressBook" style="swimlane;fontStyle=1;align=center;verticalAlign=top;childLayout=stackLayout;horizontal=1;startSize=26;horizontalStack=0;resizeParent=1;resizeParentMax=0;resizeLast=0;collapsible=1;marginBottom=0;whiteSpace=wrap;html=1;" parent="1" vertex="1">
          <mxGeometry x="310" y="140" width="130" height="310" as="geometry" />
        </mxCell>
        <mxCell id="dNgkZK0vdlMBR99GWLDx-9" value="+ data" style="text;strokeColor=none;fillColor=none;align=left;verticalAlign=top;spacingLeft=4;spacingRight=4;overflow=hidden;rotatable=0;points=[[0,0.5],[1,0.5]];portConstraint=eastwest;whiteSpace=wrap;html=1;" parent="dNgkZK0vdlMBR99GWLDx-8" vertex="1">
          <mxGeometry y="26" width="130" height="26" as="geometry" />
        </mxCell>
        <mxCell id="dNgkZK0vdlMBR99GWLDx-10" value="" style="line;strokeWidth=1;fillColor=none;align=left;verticalAlign=middle;spacingTop=-1;spacingLeft=3;spacingRight=3;rotatable=0;labelPosition=right;points=[];portConstraint=eastwest;strokeColor=inherit;" parent="dNgkZK0vdlMBR99GWLDx-8" vertex="1">
          <mxGeometry y="52" width="130" height="8" as="geometry" />
        </mxCell>
        <mxCell id="dNgkZK0vdlMBR99GWLDx-11" value="+ str()&lt;br&gt;+ setitem()&lt;br&gt;+getitem()&lt;br&gt;+ add()&lt;br&gt;+&amp;nbsp;iterator()&lt;br&gt;+&amp;nbsp;get_page()&lt;br&gt;+&amp;nbsp;find_info()&lt;br&gt;+&amp;nbsp;edit()&lt;br&gt;+&amp;nbsp;get_current_week()&lt;br&gt;+ congratulate()&lt;br&gt;+&amp;nbsp;days_to_birthday()&lt;br&gt;+&amp;nbsp;save()&lt;br&gt;+&amp;nbsp;load()&lt;br&gt;+&amp;nbsp;delete()&lt;br&gt;+&amp;nbsp;clear_book" style="text;strokeColor=none;fillColor=none;align=left;verticalAlign=top;spacingLeft=4;spacingRight=4;overflow=hidden;rotatable=0;points=[[0,0.5],[1,0.5]];portConstraint=eastwest;whiteSpace=wrap;html=1;" parent="dNgkZK0vdlMBR99GWLDx-8" vertex="1">
          <mxGeometry y="60" width="130" height="250" as="geometry" />
        </mxCell>
        <mxCell id="dNgkZK0vdlMBR99GWLDx-14" value="&lt;b&gt;UserList&lt;/b&gt;" style="swimlane;fontStyle=0;childLayout=stackLayout;horizontal=1;startSize=26;fillColor=none;horizontalStack=0;resizeParent=1;resizeParentMax=0;resizeLast=0;collapsible=1;marginBottom=0;whiteSpace=wrap;html=1;" parent="1" vertex="1">
          <mxGeometry x="570" y="254" width="110" height="52" as="geometry" />
        </mxCell>
        <mxCell id="dNgkZK0vdlMBR99GWLDx-15" value="+ data" style="text;strokeColor=none;fillColor=none;align=left;verticalAlign=top;spacingLeft=4;spacingRight=4;overflow=hidden;rotatable=0;points=[[0,0.5],[1,0.5]];portConstraint=eastwest;whiteSpace=wrap;html=1;" parent="dNgkZK0vdlMBR99GWLDx-14" vertex="1">
          <mxGeometry y="26" width="110" height="26" as="geometry" />
        </mxCell>
        <mxCell id="dNgkZK0vdlMBR99GWLDx-18" value="&lt;b&gt;Record&lt;/b&gt;" style="swimlane;fontStyle=0;childLayout=stackLayout;horizontal=1;startSize=26;fillColor=none;horizontalStack=0;resizeParent=1;resizeParentMax=0;resizeLast=0;collapsible=1;marginBottom=0;whiteSpace=wrap;html=1;" parent="1" vertex="1">
          <mxGeometry x="310" y="510" width="130" height="108" as="geometry" />
        </mxCell>
        <mxCell id="dNgkZK0vdlMBR99GWLDx-21" value="+ name&lt;br&gt;+ phone&lt;br&gt;+ birthday&lt;br&gt;+ address&lt;br&gt;+ note" style="text;strokeColor=none;fillColor=none;align=left;verticalAlign=top;spacingLeft=4;spacingRight=4;overflow=hidden;rotatable=0;points=[[0,0.5],[1,0.5]];portConstraint=eastwest;whiteSpace=wrap;html=1;" parent="dNgkZK0vdlMBR99GWLDx-18" vertex="1">
          <mxGeometry y="26" width="130" height="82" as="geometry" />
        </mxCell>
        <mxCell id="dNgkZK0vdlMBR99GWLDx-34" value="&lt;b&gt;Phone&lt;/b&gt;" style="swimlane;fontStyle=0;childLayout=stackLayout;horizontal=1;startSize=26;fillColor=none;horizontalStack=0;resizeParent=1;resizeParentMax=0;resizeLast=0;collapsible=1;marginBottom=0;whiteSpace=wrap;html=1;" parent="1" vertex="1">
          <mxGeometry x="170" y="720" width="110" height="52" as="geometry" />
        </mxCell>
        <mxCell id="dNgkZK0vdlMBR99GWLDx-35" value="+ value" style="text;strokeColor=none;fillColor=none;align=left;verticalAlign=top;spacingLeft=4;spacingRight=4;overflow=hidden;rotatable=0;points=[[0,0.5],[1,0.5]];portConstraint=eastwest;whiteSpace=wrap;html=1;" parent="dNgkZK0vdlMBR99GWLDx-34" vertex="1">
          <mxGeometry y="26" width="110" height="26" as="geometry" />
        </mxCell>
        <mxCell id="dNgkZK0vdlMBR99GWLDx-36" value="&lt;b&gt;Birthday&lt;/b&gt;" style="swimlane;fontStyle=0;childLayout=stackLayout;horizontal=1;startSize=26;fillColor=none;horizontalStack=0;resizeParent=1;resizeParentMax=0;resizeLast=0;collapsible=1;marginBottom=0;whiteSpace=wrap;html=1;" parent="1" vertex="1">
          <mxGeometry x="330" y="720" width="110" height="52" as="geometry" />
        </mxCell>
        <mxCell id="dNgkZK0vdlMBR99GWLDx-37" value="+ value" style="text;strokeColor=none;fillColor=none;align=left;verticalAlign=top;spacingLeft=4;spacingRight=4;overflow=hidden;rotatable=0;points=[[0,0.5],[1,0.5]];portConstraint=eastwest;whiteSpace=wrap;html=1;" parent="dNgkZK0vdlMBR99GWLDx-36" vertex="1">
          <mxGeometry y="26" width="110" height="26" as="geometry" />
        </mxCell>
        <mxCell id="dNgkZK0vdlMBR99GWLDx-38" value="&lt;b&gt;Name&lt;/b&gt;" style="swimlane;fontStyle=0;childLayout=stackLayout;horizontal=1;startSize=26;fillColor=none;horizontalStack=0;resizeParent=1;resizeParentMax=0;resizeLast=0;collapsible=1;marginBottom=0;whiteSpace=wrap;html=1;" parent="1" vertex="1">
          <mxGeometry x="10" y="720" width="110" height="52" as="geometry" />
        </mxCell>
        <mxCell id="dNgkZK0vdlMBR99GWLDx-39" value="+ value" style="text;strokeColor=none;fillColor=none;align=left;verticalAlign=top;spacingLeft=4;spacingRight=4;overflow=hidden;rotatable=0;points=[[0,0.5],[1,0.5]];portConstraint=eastwest;whiteSpace=wrap;html=1;" parent="dNgkZK0vdlMBR99GWLDx-38" vertex="1">
          <mxGeometry y="26" width="110" height="26" as="geometry" />
        </mxCell>
        <mxCell id="dNgkZK0vdlMBR99GWLDx-42" value="&lt;b&gt;&lt;i&gt;Fields&lt;/i&gt;&lt;/b&gt;" style="swimlane;fontStyle=0;childLayout=stackLayout;horizontal=1;startSize=26;fillColor=none;horizontalStack=0;resizeParent=1;resizeParentMax=0;resizeLast=0;collapsible=1;marginBottom=0;whiteSpace=wrap;html=1;" parent="1" vertex="1">
          <mxGeometry x="330" y="880" width="110" height="52" as="geometry" />
        </mxCell>
        <mxCell id="dNgkZK0vdlMBR99GWLDx-43" value="+ getitem()" style="text;strokeColor=none;fillColor=none;align=left;verticalAlign=top;spacingLeft=4;spacingRight=4;overflow=hidden;rotatable=0;points=[[0,0.5],[1,0.5]];portConstraint=eastwest;whiteSpace=wrap;html=1;" parent="dNgkZK0vdlMBR99GWLDx-42" vertex="1">
          <mxGeometry y="26" width="110" height="26" as="geometry" />
        </mxCell>
        <mxCell id="dNgkZK0vdlMBR99GWLDx-44" value="&lt;b&gt;&lt;i&gt;ABC&lt;/i&gt;&lt;/b&gt;" style="swimlane;fontStyle=0;childLayout=stackLayout;horizontal=1;startSize=26;fillColor=none;horizontalStack=0;resizeParent=1;resizeParentMax=0;resizeLast=0;collapsible=1;marginBottom=0;whiteSpace=wrap;html=1;" parent="1" vertex="1">
          <mxGeometry x="330" y="1000" width="110" height="52" as="geometry" />
        </mxCell>
        <mxCell id="dNgkZK0vdlMBR99GWLDx-45" value="pass" style="text;strokeColor=none;fillColor=none;align=left;verticalAlign=top;spacingLeft=4;spacingRight=4;overflow=hidden;rotatable=0;points=[[0,0.5],[1,0.5]];portConstraint=eastwest;whiteSpace=wrap;html=1;" parent="dNgkZK0vdlMBR99GWLDx-44" vertex="1">
          <mxGeometry y="26" width="110" height="26" as="geometry" />
        </mxCell>
        <mxCell id="nsl3mf1OhNcGy-ydaZYm-2" value="&lt;b&gt;Address&lt;/b&gt;" style="swimlane;fontStyle=0;childLayout=stackLayout;horizontal=1;startSize=26;fillColor=none;horizontalStack=0;resizeParent=1;resizeParentMax=0;resizeLast=0;collapsible=1;marginBottom=0;whiteSpace=wrap;html=1;" vertex="1" parent="1">
          <mxGeometry x="490" y="720" width="110" height="52" as="geometry" />
        </mxCell>
        <mxCell id="nsl3mf1OhNcGy-ydaZYm-3" value="+ value" style="text;strokeColor=none;fillColor=none;align=left;verticalAlign=top;spacingLeft=4;spacingRight=4;overflow=hidden;rotatable=0;points=[[0,0.5],[1,0.5]];portConstraint=eastwest;whiteSpace=wrap;html=1;" vertex="1" parent="nsl3mf1OhNcGy-ydaZYm-2">
          <mxGeometry y="26" width="110" height="26" as="geometry" />
        </mxCell>
        <mxCell id="nsl3mf1OhNcGy-ydaZYm-4" value="&lt;b&gt;Note&lt;/b&gt;" style="swimlane;fontStyle=0;childLayout=stackLayout;horizontal=1;startSize=26;fillColor=none;horizontalStack=0;resizeParent=1;resizeParentMax=0;resizeLast=0;collapsible=1;marginBottom=0;whiteSpace=wrap;html=1;" vertex="1" parent="1">
          <mxGeometry x="650" y="720" width="110" height="52" as="geometry" />
        </mxCell>
        <mxCell id="nsl3mf1OhNcGy-ydaZYm-5" value="+ value" style="text;strokeColor=none;fillColor=none;align=left;verticalAlign=top;spacingLeft=4;spacingRight=4;overflow=hidden;rotatable=0;points=[[0,0.5],[1,0.5]];portConstraint=eastwest;whiteSpace=wrap;html=1;" vertex="1" parent="nsl3mf1OhNcGy-ydaZYm-4">
          <mxGeometry y="26" width="110" height="26" as="geometry" />
        </mxCell>
        <mxCell id="nsl3mf1OhNcGy-ydaZYm-6" value="" style="endArrow=classic;endSize=10;endFill=1;shadow=0;strokeWidth=1;rounded=0;edgeStyle=elbowEdgeStyle;elbow=vertical;startArrow=diamondThin;startFill=0;entryX=0.5;entryY=1.154;entryDx=0;entryDy=0;entryPerimeter=0;" edge="1" parent="1" target="dNgkZK0vdlMBR99GWLDx-7">
          <mxGeometry width="160" relative="1" as="geometry">
            <mxPoint x="375" y="140" as="sourcePoint" />
            <mxPoint x="210" y="220" as="targetPoint" />
          </mxGeometry>
        </mxCell>
        <mxCell id="nsl3mf1OhNcGy-ydaZYm-15" value="+ getitem()" style="html=1;whiteSpace=wrap;" vertex="1" parent="1">
          <mxGeometry x="10" y="772" width="110" height="30" as="geometry" />
        </mxCell>
        <mxCell id="nsl3mf1OhNcGy-ydaZYm-16" value="+ getitem()" style="html=1;whiteSpace=wrap;" vertex="1" parent="1">
          <mxGeometry x="170" y="772" width="110" height="30" as="geometry" />
        </mxCell>
        <mxCell id="nsl3mf1OhNcGy-ydaZYm-17" value="+ getitem()" style="html=1;whiteSpace=wrap;" vertex="1" parent="1">
          <mxGeometry x="330" y="772" width="110" height="30" as="geometry" />
        </mxCell>
        <mxCell id="nsl3mf1OhNcGy-ydaZYm-18" value="+ getitem()" style="html=1;whiteSpace=wrap;" vertex="1" parent="1">
          <mxGeometry x="490" y="772" width="110" height="30" as="geometry" />
        </mxCell>
        <mxCell id="nsl3mf1OhNcGy-ydaZYm-19" value="+ getitem()" style="html=1;whiteSpace=wrap;" vertex="1" parent="1">
          <mxGeometry x="650" y="772" width="110" height="30" as="geometry" />
        </mxCell>
        <mxCell id="nsl3mf1OhNcGy-ydaZYm-21" value="Use" style="endArrow=open;endSize=12;dashed=1;html=1;rounded=0;" edge="1" parent="1">
          <mxGeometry width="160" relative="1" as="geometry">
            <mxPoint x="440" y="280" as="sourcePoint" />
            <mxPoint x="570" y="279.5" as="targetPoint" />
          </mxGeometry>
        </mxCell>
        <mxCell id="nsl3mf1OhNcGy-ydaZYm-22" value="Use" style="endArrow=open;endSize=12;dashed=1;html=1;rounded=0;exitX=0.497;exitY=1.051;exitDx=0;exitDy=0;exitPerimeter=0;entryX=0.5;entryY=0;entryDx=0;entryDy=0;" edge="1" parent="1" source="dNgkZK0vdlMBR99GWLDx-43" target="dNgkZK0vdlMBR99GWLDx-44">
          <mxGeometry width="160" relative="1" as="geometry">
            <mxPoint x="460" y="930.5" as="sourcePoint" />
            <mxPoint x="590" y="930" as="targetPoint" />
          </mxGeometry>
        </mxCell>
        <mxCell id="nsl3mf1OhNcGy-ydaZYm-23" value="Use" style="endArrow=open;endSize=12;dashed=1;html=1;rounded=0;exitX=0.5;exitY=1;exitDx=0;exitDy=0;entryX=0.5;entryY=0;entryDx=0;entryDy=0;" edge="1" parent="1" source="nsl3mf1OhNcGy-ydaZYm-17">
          <mxGeometry width="160" relative="1" as="geometry">
            <mxPoint x="384.5" y="813" as="sourcePoint" />
            <mxPoint x="384.5" y="880" as="targetPoint" />
          </mxGeometry>
        </mxCell>
        <mxCell id="nsl3mf1OhNcGy-ydaZYm-24" value="Use" style="endArrow=open;endSize=12;dashed=1;html=1;rounded=0;exitX=0.497;exitY=1.051;exitDx=0;exitDy=0;exitPerimeter=0;entryX=0;entryY=0.5;entryDx=0;entryDy=0;" edge="1" parent="1" target="dNgkZK0vdlMBR99GWLDx-42">
          <mxGeometry width="160" relative="1" as="geometry">
            <mxPoint x="64.5" y="802" as="sourcePoint" />
            <mxPoint x="64.5" y="869" as="targetPoint" />
          </mxGeometry>
        </mxCell>
        <mxCell id="nsl3mf1OhNcGy-ydaZYm-25" value="Use" style="endArrow=open;endSize=12;dashed=1;html=1;rounded=0;exitX=0.497;exitY=1.051;exitDx=0;exitDy=0;exitPerimeter=0;entryX=0;entryY=0;entryDx=0;entryDy=0;" edge="1" parent="1" target="dNgkZK0vdlMBR99GWLDx-42">
          <mxGeometry x="0.0149" width="160" relative="1" as="geometry">
            <mxPoint x="224.5" y="802" as="sourcePoint" />
            <mxPoint x="224.5" y="869" as="targetPoint" />
            <mxPoint as="offset" />
          </mxGeometry>
        </mxCell>
        <mxCell id="nsl3mf1OhNcGy-ydaZYm-26" value="Use" style="endArrow=open;endSize=12;dashed=1;html=1;rounded=0;exitX=0.497;exitY=1.051;exitDx=0;exitDy=0;exitPerimeter=0;entryX=1;entryY=0;entryDx=0;entryDy=0;" edge="1" parent="1" target="dNgkZK0vdlMBR99GWLDx-42">
          <mxGeometry width="160" relative="1" as="geometry">
            <mxPoint x="544.5" y="802" as="sourcePoint" />
            <mxPoint x="544.5" y="869" as="targetPoint" />
          </mxGeometry>
        </mxCell>
        <mxCell id="nsl3mf1OhNcGy-ydaZYm-27" value="Use" style="endArrow=open;endSize=12;dashed=1;html=1;rounded=0;exitX=0.497;exitY=1.051;exitDx=0;exitDy=0;exitPerimeter=0;entryX=0.982;entryY=-0.051;entryDx=0;entryDy=0;entryPerimeter=0;" edge="1" parent="1" target="dNgkZK0vdlMBR99GWLDx-43">
          <mxGeometry width="160" relative="1" as="geometry">
            <mxPoint x="704.5" y="802" as="sourcePoint" />
            <mxPoint x="704.5" y="869" as="targetPoint" />
          </mxGeometry>
        </mxCell>
        <mxCell id="nsl3mf1OhNcGy-ydaZYm-32" value="" style="endArrow=classic;endSize=10;endFill=1;shadow=0;strokeWidth=1;rounded=0;edgeStyle=elbowEdgeStyle;elbow=vertical;startArrow=diamondThin;startFill=0;exitX=0.5;exitY=0;exitDx=0;exitDy=0;" edge="1" parent="1" source="dNgkZK0vdlMBR99GWLDx-38">
          <mxGeometry width="160" relative="1" as="geometry">
            <mxPoint x="50" y="600" as="sourcePoint" />
            <mxPoint x="380" y="620" as="targetPoint" />
            <Array as="points">
              <mxPoint x="320" y="680" />
              <mxPoint x="380" y="610" />
              <mxPoint x="370" y="680" />
              <mxPoint x="360" y="680" />
              <mxPoint x="330" y="680" />
              <mxPoint x="380" y="620" />
              <mxPoint x="360" y="680" />
              <mxPoint x="210" y="600" />
            </Array>
          </mxGeometry>
        </mxCell>
        <mxCell id="nsl3mf1OhNcGy-ydaZYm-33" value="" style="endArrow=none;html=1;rounded=0;startArrow=diamondThin;startFill=0;exitX=0.452;exitY=-0.021;exitDx=0;exitDy=0;exitPerimeter=0;" edge="1" parent="1" source="dNgkZK0vdlMBR99GWLDx-36">
          <mxGeometry width="50" height="50" relative="1" as="geometry">
            <mxPoint x="560" y="595" as="sourcePoint" />
            <mxPoint x="380" y="680" as="targetPoint" />
            <Array as="points">
              <mxPoint x="380" y="700" />
            </Array>
          </mxGeometry>
        </mxCell>
        <mxCell id="nsl3mf1OhNcGy-ydaZYm-34" value="" style="endArrow=none;html=1;rounded=0;startArrow=diamondThin;startFill=0;exitX=0.5;exitY=0;exitDx=0;exitDy=0;" edge="1" parent="1" source="nsl3mf1OhNcGy-ydaZYm-2">
          <mxGeometry width="50" height="50" relative="1" as="geometry">
            <mxPoint x="520" y="570" as="sourcePoint" />
            <mxPoint x="545" y="680" as="targetPoint" />
            <Array as="points">
              <mxPoint x="545" y="700" />
            </Array>
          </mxGeometry>
        </mxCell>
        <mxCell id="nsl3mf1OhNcGy-ydaZYm-35" value="" style="endArrow=none;html=1;rounded=0;startArrow=diamondThin;startFill=0;exitX=0.5;exitY=0;exitDx=0;exitDy=0;" edge="1" parent="1" source="nsl3mf1OhNcGy-ydaZYm-4">
          <mxGeometry width="50" height="50" relative="1" as="geometry">
            <mxPoint x="580" y="615" as="sourcePoint" />
            <mxPoint x="380" y="680" as="targetPoint" />
            <Array as="points">
              <mxPoint x="705" y="680" />
            </Array>
          </mxGeometry>
        </mxCell>
        <mxCell id="nsl3mf1OhNcGy-ydaZYm-36" value="" style="endArrow=none;html=1;rounded=0;startArrow=diamondThin;startFill=0;exitX=0.5;exitY=0;exitDx=0;exitDy=0;" edge="1" parent="1" source="dNgkZK0vdlMBR99GWLDx-34">
          <mxGeometry width="50" height="50" relative="1" as="geometry">
            <mxPoint x="590" y="625" as="sourcePoint" />
            <mxPoint x="225" y="680" as="targetPoint" />
            <Array as="points">
              <mxPoint x="225" y="700" />
            </Array>
          </mxGeometry>
        </mxCell>
        <mxCell id="nsl3mf1OhNcGy-ydaZYm-37" value="" style="endArrow=classic;endSize=10;endFill=1;shadow=0;strokeWidth=1;rounded=0;edgeStyle=elbowEdgeStyle;elbow=vertical;startArrow=diamondThin;startFill=0;exitX=0.5;exitY=0;exitDx=0;exitDy=0;" edge="1" parent="1" source="dNgkZK0vdlMBR99GWLDx-18">
          <mxGeometry width="160" relative="1" as="geometry">
            <mxPoint x="374.5" y="440" as="sourcePoint" />
            <mxPoint x="375" y="450" as="targetPoint" />
          </mxGeometry>
        </mxCell>
      </root>
    </mxGraphModel>
  </diagram>
</mxfile>
